<?xml version="1.0" encoding="UTF-8"?>
<svg version="1.1" xmlns="http://www.w3.org/2000/svg" width="414" height="331">
<path d="M0 0 C20.88814419 -0.07008277 41.776269 -0.12298461 62.66450691 -0.15543652 C72.36329199 -0.17090503 82.062004 -0.19199429 91.76074219 -0.22631836 C100.21421637 -0.25622114 108.66763765 -0.27557511 117.12116325 -0.28226548 C121.59720082 -0.28617625 126.07308702 -0.2953668 130.54907608 -0.31719017 C134.76301421 -0.33756919 138.97673878 -0.34383094 143.19072151 -0.33932304 C144.73626809 -0.34014761 146.28182189 -0.3461049 147.82732582 -0.35761642 C149.94057493 -0.37258318 152.05302189 -0.36893901 154.16629028 -0.36076355 C155.34802889 -0.36352893 156.52976749 -0.36629431 157.74731636 -0.36914349 C161.43105281 0.04891971 163.83539511 1.09879977 167 3 C168.57641602 5.03930664 168.57641602 5.03930664 169.75390625 7.41015625 C170.20926758 8.30468506 170.66462891 9.19921387 171.13378906 10.12084961 C171.60526367 11.09159424 172.07673828 12.06233887 172.5625 13.0625 C173.07135742 14.0738501 173.58021484 15.0852002 174.10449219 16.12719727 C175.19035303 18.29081304 176.26807826 20.45852759 177.33837891 22.62988281 C179.0045478 26.0092239 180.69237678 29.37689395 182.38671875 32.7421875 C185.14063081 38.21852239 187.876587 43.70354203 190.60449219 49.19287109 C192.35539551 52.71489461 194.11426364 56.23288555 195.875 59.75 C196.4870465 60.97392467 197.09902135 62.19788516 197.7109375 63.421875 C198.05350586 64.10701172 198.39607422 64.79214844 198.74902344 65.49804688 C211.49934896 90.99869792 224.24967448 116.49934896 237 142 C239.48614167 138.89937735 241.26218855 135.71242363 243.02758789 132.15600586 C243.90979759 130.38651833 243.90979759 130.38651833 244.80982971 128.58128357 C245.44745322 127.29247755 246.08506166 126.00366407 246.72265625 124.71484375 C247.38902699 123.37581678 248.05581834 122.03699904 248.7230072 120.69837952 C250.48324901 117.16459609 252.23904464 113.6286242 253.99353027 110.09197998 C257.10648458 103.81790358 260.22556299 97.5468767 263.34765625 91.27734375 C263.68255318 90.60438955 264.0174501 89.93143536 264.36249542 89.23808861 C268.74947688 80.42783507 273.19486304 71.65364708 277.84938049 62.9808197 C281.43420011 56.28679848 284.63927911 49.42353272 287.85546875 42.546875 C290.43256045 37.05247383 293.14424448 31.63009509 295.8828125 26.21484375 C297.49014624 23.03337288 299.05875795 19.83460828 300.6171875 16.62890625 C301.06457275 15.7155249 301.51195801 14.80214355 301.97290039 13.86108398 C302.85076182 12.0680836 303.72257637 10.2721071 304.58764648 8.47290039 C305.18814819 7.25268188 305.18814819 7.25268188 305.80078125 6.0078125 C306.15309814 5.28223145 306.50541504 4.55665039 306.8684082 3.80908203 C308 2 308 2 311 0 C314.02208258 -0.20851536 316.94978756 -0.30401037 319.97265625 -0.30078125 C320.85150986 -0.30506638 321.73036346 -0.3093515 322.635849 -0.31376648 C324.49265684 -0.31950739 326.34948718 -0.3200118 328.20629883 -0.31567383 C331.0552371 -0.31250807 333.90314284 -0.33599553 336.75195312 -0.36132812 C338.55468619 -0.36360047 340.35742205 -0.36430491 342.16015625 -0.36328125 C343.01537369 -0.372491 343.87059113 -0.38170074 344.75172424 -0.39118958 C347.14868164 -0.37231445 347.14868164 -0.37231445 351 0 C351.66 0.99 352.32 1.98 353 3 C352.51313721 3.96212402 352.02627441 4.92424805 351.5246582 5.91552734 C346.92691012 15.03593112 342.50005774 24.22252378 338.18731689 33.48068237 C333.27378137 44.0187928 328.32828594 54.53861818 323.125 64.9375 C322.74625732 65.69562988 322.36751465 66.45375977 321.97729492 67.23486328 C319.56886845 72.00699338 317.08439709 76.7368926 314.58370972 81.46107483 C308.8887999 92.22658908 303.41088645 103.08945474 298 114 C293.1258823 123.82820139 288.22912194 133.63532721 283.08984375 143.328125 C277.91797499 153.08548572 272.95317562 162.9418322 268.02319336 172.82324219 C266.5698742 175.73522449 265.11230127 178.64504875 263.65429688 181.5546875 C258.24925327 192.36136795 252.94208222 203.20928413 247.76234436 214.12591553 C244.91515668 220.12201171 241.99110872 226.07435884 239 232 C235.17728127 230.53835066 234.03103537 228.80123429 232.24194336 225.1809082 C231.73718979 224.17417557 231.23243622 223.16744293 230.71238708 222.13020325 C230.17694778 221.03149399 229.64150848 219.93278473 229.08984375 218.80078125 C228.52229874 217.65957321 227.95475372 216.51836517 227.37001038 215.34257507 C225.85265906 212.29061537 224.35013688 209.2315762 222.8503418 206.17095947 C221.36601269 203.14900594 219.86667091 200.13457436 218.36914062 197.11914062 C212.89526854 186.07331989 207.4996739 174.99313162 202.20703125 163.859375 C197.9434282 154.89441803 193.50843828 146.03479317 188.93591309 137.22390747 C180.73229807 121.40756571 172.70557258 105.50482004 164.75 89.5625 C164.26849487 88.59762665 163.78698975 87.6327533 163.29089355 86.63864136 C161.01739782 82.08156905 158.7454497 77.52372808 156.47460938 72.96533203 C153.31956874 66.63278463 150.15513994 60.30494678 146.98937988 53.97775269 C144.99224108 49.98550796 142.99621214 45.99270814 141 42 C139.7524292 42.0030162 138.5048584 42.00603241 137.21948242 42.00914001 C125.44885458 42.03303833 113.67876122 42.02017454 101.90820312 41.97153378 C95.85708569 41.94770374 89.80651867 41.93672127 83.75537109 41.95532227 C77.91301162 41.97280508 72.07163994 41.95624941 66.22940063 41.91632271 C64.00316063 41.90704519 61.77683489 41.90992915 59.55062866 41.92530632 C56.42588451 41.94479024 53.30424366 41.92061248 50.1796875 41.88647461 C49.26402512 41.9022908 48.34836273 41.91810699 47.404953 41.93440247 C41.15012104 41.80334571 38.05529902 40.09806944 33.61184692 35.7102747 C33.07993744 35.14588405 32.54802795 34.5814934 32 34 C31.2575 33.28972656 30.515 32.57945313 29.75 31.84765625 C29.1725 31.25855469 28.595 30.66945313 28 30.0625 C27.34 29.39476563 26.68 28.72703125 26 28.0390625 C24.66666667 26.6796875 23.33333333 25.3203125 22 23.9609375 C17.50803359 19.41633086 12.84896727 15.15942327 8 11 C6.33121676 9.52322165 4.66408241 8.04457339 3 6.5625 C2.236875 5.88316406 1.47375 5.20382813 0.6875 4.50390625 C0.130625 4.00761719 -0.42625 3.51132812 -1 3 C-0.67 2.01 -0.34 1.02 0 0 Z " fill="#62656F" transform="translate(43,57)"/>
<path d="M0 0 C20.88814419 -0.07008277 41.776269 -0.12298461 62.66450691 -0.15543652 C72.36329199 -0.17090503 82.062004 -0.19199429 91.76074219 -0.22631836 C100.21421637 -0.25622114 108.66763765 -0.27557511 117.12116325 -0.28226548 C121.59720082 -0.28617625 126.07308702 -0.2953668 130.54907608 -0.31719017 C134.76301421 -0.33756919 138.97673878 -0.34383094 143.19072151 -0.33932304 C144.73626809 -0.34014761 146.28182189 -0.3461049 147.82732582 -0.35761642 C149.94057493 -0.37258318 152.05302189 -0.36893901 154.16629028 -0.36076355 C155.34802889 -0.36352893 156.52976749 -0.36629431 157.74731636 -0.36914349 C161.43105281 0.04891971 163.83539511 1.09879977 167 3 C168.57641602 5.03930664 168.57641602 5.03930664 169.75390625 7.41015625 C170.20926758 8.30468506 170.66462891 9.19921387 171.13378906 10.12084961 C171.60526367 11.09159424 172.07673828 12.06233887 172.5625 13.0625 C173.07135742 14.0738501 173.58021484 15.0852002 174.10449219 16.12719727 C175.19035303 18.29081304 176.26807826 20.45852759 177.33837891 22.62988281 C179.0045478 26.0092239 180.69237678 29.37689395 182.38671875 32.7421875 C185.12737096 38.19219508 187.85019253 43.6508199 190.56494141 49.11376953 C192.18716937 52.37644034 193.81536286 55.63607977 195.4465332 58.89428711 C196.09089383 60.18221463 196.73402805 61.47075672 197.37573242 62.76000977 C198.84353424 65.70718976 200.32922768 68.64321803 201.8515625 71.5625 C202.41617188 72.655625 202.98078125 73.74875 203.5625 74.875 C204.05878906 75.82117188 204.55507812 76.76734375 205.06640625 77.7421875 C205.37449219 78.48726563 205.68257812 79.23234375 206 80 C205.67 80.66 205.34 81.32 205 82 C203.62437146 80.71034824 202.29233607 79.37310707 201 78 C201 77.34 201 76.68 201 76 C200.34 76 199.68 76 199 76 C198.071875 77.175625 198.071875 77.175625 197.125 78.375 C194.12584155 82.07984279 192.4630742 82.84368115 187.74609375 83.34765625 C183.18241885 82.92412438 181.06305644 81.1624396 177.875 78.125 C174.46697103 74.98115932 171.50067865 72.43428221 167 71 C165.68 73.31 164.36 75.62 163 78 C162.34 78 161.68 78 161 78 C160.67 78.66 160.34 79.32 160 80 C158.32677616 76.85761529 156.66279927 73.71041155 155 70.5625 C154.54238281 69.70333984 154.08476562 68.84417969 153.61328125 67.95898438 C150.51480751 62.08037325 147.61634927 56.12675228 144.80078125 50.10913086 C144.43359985 49.32652641 144.06641846 48.54392197 143.68811035 47.73760223 C142.79115244 45.82549998 141.89544709 43.91281025 141 42 C139.7524292 42.0030162 138.5048584 42.00603241 137.21948242 42.00914001 C125.44885458 42.03303833 113.67876122 42.02017454 101.90820312 41.97153378 C95.85708569 41.94770374 89.80651867 41.93672127 83.75537109 41.95532227 C77.91301162 41.97280508 72.07163994 41.95624941 66.22940063 41.91632271 C64.00316063 41.90704519 61.77683489 41.90992915 59.55062866 41.92530632 C56.42588451 41.94479024 53.30424366 41.92061248 50.1796875 41.88647461 C49.26402512 41.9022908 48.34836273 41.91810699 47.404953 41.93440247 C41.15012104 41.80334571 38.05529902 40.09806944 33.61184692 35.7102747 C33.07993744 35.14588405 32.54802795 34.5814934 32 34 C31.2575 33.28972656 30.515 32.57945313 29.75 31.84765625 C29.1725 31.25855469 28.595 30.66945313 28 30.0625 C27.34 29.39476563 26.68 28.72703125 26 28.0390625 C24.66666667 26.6796875 23.33333333 25.3203125 22 23.9609375 C17.50803359 19.41633086 12.84896727 15.15942327 8 11 C6.33121676 9.52322165 4.66408241 8.04457339 3 6.5625 C2.236875 5.88316406 1.47375 5.20382813 0.6875 4.50390625 C0.130625 4.00761719 -0.42625 3.51132812 -1 3 C-0.67 2.01 -0.34 1.02 0 0 Z " fill="#26272A" transform="translate(43,57)"/>
<path d="M0 0 C1.40516962 -0.00322339 2.81033529 -0.00904677 4.21548462 -0.01725769 C8.01094468 -0.03172843 11.80533721 -0.00893774 15.60066819 0.02160144 C19.57773415 0.04804802 23.55477015 0.04266872 27.53190613 0.04151917 C34.20390593 0.04432312 40.87549475 0.07030143 47.54736328 0.11132812 C55.26265699 0.15859543 62.97750201 0.17431883 70.69293004 0.17212147 C78.91291856 0.17009659 87.13273407 0.19090067 95.35267043 0.21846128 C97.72070901 0.22485683 100.0887197 0.22698496 102.45676613 0.22817802 C106.17270108 0.23118805 109.88825841 0.24947434 113.60406876 0.27967644 C115.62037031 0.29263767 117.6367493 0.29093544 119.65309143 0.28884888 C121.44677155 0.30804131 121.44677155 0.30804131 123.27668762 0.32762146 C124.31806287 0.33264899 125.35943811 0.33767653 126.43237019 0.34285641 C129.395858 0.78610602 130.23794425 1.36992428 132.01245117 3.72875977 C132.91706763 5.41496762 133.7515558 7.13960156 134.53588867 8.88500977 C134.99995117 9.90852539 135.46401367 10.93204102 135.94213867 11.98657227 C136.65756836 13.59145508 136.65756836 13.59145508 137.38745117 15.22875977 C137.85666992 16.26774414 138.32588867 17.30672852 138.80932617 18.37719727 C139.74870663 20.45836612 140.68331616 22.54169531 141.61303711 24.62719727 C142.55956043 26.72500471 143.52701948 28.8134711 144.51342773 30.89282227 C144.97974609 31.88024414 145.44606445 32.86766602 145.92651367 33.88500977 C146.3514209 34.76995117 146.77632812 35.65489258 147.21411133 36.56665039 C147.47756348 37.28014648 147.74101562 37.99364258 148.01245117 38.72875977 C147.68245117 39.38875977 147.35245117 40.04875977 147.01245117 40.72875977 C80.35245117 40.72875977 13.69245117 40.72875977 -54.98754883 40.72875977 C-53.92862298 34.3752047 -53.65857362 33.79905432 -49.11254883 29.91625977 C-48.11610352 29.05516602 -47.1196582 28.19407227 -46.09301758 27.30688477 C-42.31798958 24.15494251 -38.5113297 21.04209306 -34.68286133 17.95532227 C-31.19942987 15.07770498 -27.87769237 12.04341164 -24.56958008 8.96704102 C-23.71750977 8.2284082 -22.86543945 7.48977539 -21.98754883 6.72875977 C-21.48911626 6.23195741 -20.99068369 5.73515505 -20.4771471 5.22329807 C-14.199306 -0.39073783 -8.116674 -0.10496064 0 0 Z " fill="#696D79" transform="translate(96.987548828125,248.271240234375)"/>
<path d="M0 0 C0.83311203 -0.00335861 1.66622406 -0.00671722 2.52458191 -0.01017761 C5.27022809 -0.01965374 8.01581311 -0.02162876 10.76147461 -0.02270508 C12.67288742 -0.02591897 14.58429999 -0.02928314 16.49571228 -0.03279114 C20.49779837 -0.03877332 24.49986288 -0.04063187 28.50195312 -0.04003906 C33.63230255 -0.03993726 38.76251414 -0.05361223 43.89283085 -0.07081127 C47.83817685 -0.08192115 51.78348936 -0.08395862 55.72884941 -0.08342934 C57.62069615 -0.0846101 59.51254374 -0.08903729 61.40437508 -0.0967617 C64.04702611 -0.10654513 66.68937549 -0.10369055 69.33203125 -0.09765625 C70.11395844 -0.10327576 70.89588562 -0.10889526 71.70150757 -0.11468506 C78.56959433 -0.07477855 78.56959433 -0.07477855 81.60131836 2.14526367 C83.01713878 4.40530457 84.21790386 6.56422792 85.38647461 8.94604492 C85.72883652 9.61943405 86.07119843 10.29282318 86.42393494 10.98661804 C87.51508981 13.13822589 88.58984178 15.29753786 89.66381836 17.45776367 C90.74475688 19.60542102 91.8289887 21.75138125 92.91441345 23.89677429 C93.58783754 25.23070047 94.25806324 26.56624774 94.92457581 27.90364075 C96.30426742 30.66042322 97.72011115 33.33943677 99.32958984 35.97021484 C100.60131836 38.14526367 100.60131836 38.14526367 100.60131836 40.14526367 C97.89579074 41.49802748 95.79266952 41.27119495 92.76234436 41.27224731 C91.51863571 41.27506714 90.27492706 41.27788696 88.99353027 41.28079224 C87.60766587 41.27884775 86.22180161 41.27679957 84.8359375 41.2746582 C83.38240007 41.27601262 81.92886298 41.27779279 80.47532654 41.27996826 C76.52081568 41.28453813 72.56633083 41.28275475 68.61181951 41.27958918 C64.47855257 41.2770628 60.3452879 41.27940394 56.21202087 41.28097534 C49.26894734 41.28279643 42.32588442 41.28039254 35.3828125 41.27563477 C27.35077533 41.2701944 19.31876356 41.27195341 11.28672701 41.27746117 C4.39752264 41.28199659 -2.49167408 41.28264068 -9.38087946 41.2800225 C-13.49846568 41.27846182 -17.61603996 41.27826023 -21.73362541 41.28155899 C-25.60527296 41.28444383 -29.47688772 41.28245067 -33.34853172 41.27666473 C-34.77116084 41.27534035 -36.19379271 41.27572583 -37.61642075 41.2779274 C-39.55518751 41.28065148 -41.49396028 41.27663307 -43.432724 41.27224731 C-45.06178381 41.27168178 -45.06178381 41.27168178 -46.72375393 41.27110481 C-49.39868164 41.14526367 -49.39868164 41.14526367 -52.39868164 40.14526367 C-51.85648143 36.26379866 -50.27786433 34.82263533 -47.33618164 32.33276367 C-42.62990789 28.24591365 -38.05813271 24.04706325 -33.52368164 19.77026367 C-32.14496911 18.47839023 -30.76606389 17.1867224 -29.38696289 15.89526367 C-26.86995478 13.53485058 -24.36803969 11.16028026 -21.87915039 8.77026367 C-20.82334117 7.77007325 -19.76736273 6.7700614 -18.71118164 5.77026367 C-17.79981445 4.8962793 -16.88844727 4.02229492 -15.94946289 3.12182617 C-11.20212829 -0.55681289 -5.79408937 -0.00336683 0 0 Z " fill="#9F9FAE" transform="translate(95.398681640625,152.854736328125)"/>
<path d="M0 0 C3.59558913 0.4766487 5.25392144 1.92849644 8.0234375 4.234375 C9.34794922 5.31332031 9.34794922 5.31332031 10.69921875 6.4140625 C11.69501953 7.37699219 11.69501953 7.37699219 12.7109375 8.359375 C12.7109375 9.019375 12.7109375 9.679375 12.7109375 10.359375 C13.26523438 10.62878906 13.81953125 10.89820313 14.390625 11.17578125 C16.92604097 12.4690995 19.38086182 13.85680822 21.8359375 15.296875 C22.70476562 15.80089844 23.57359375 16.30492187 24.46875 16.82421875 C26.7109375 18.359375 26.7109375 18.359375 28.7109375 21.359375 C29.3915625 21.66875 30.0721875 21.978125 30.7734375 22.296875 C32.7109375 23.359375 32.7109375 23.359375 33.33203125 25.42578125 C33.51958984 26.38291016 33.51958984 26.38291016 33.7109375 27.359375 C24.17217051 36.16881976 24.17217051 36.16881976 19.8984375 39.109375 C16.17845916 41.73524206 13.1114088 44.66713885 10.2109375 48.171875 C8.7109375 49.359375 8.7109375 49.359375 6.2734375 49.796875 C2.85778161 49.21371424 1.97535881 47.95915657 -0.2890625 45.359375 C-2.59175904 41.54428134 -4.57601719 37.57089215 -6.57226562 33.58911133 C-7.53227411 31.68533693 -8.5191211 29.7972044 -9.5078125 27.90820312 C-12.94187757 21.18763565 -15.18111865 15.9831512 -14.2890625 8.359375 C-13.6290625 8.359375 -12.9690625 8.359375 -12.2890625 8.359375 C-12.2890625 7.699375 -12.2890625 7.039375 -12.2890625 6.359375 C-10.9278125 5.988125 -10.9278125 5.988125 -9.5390625 5.609375 C-6.23260279 4.59864612 -6.23260279 4.59864612 -4.2265625 2.234375 C-2.2890625 0.359375 -2.2890625 0.359375 0 0 Z " fill="#A9A9B8" transform="translate(229.2890625,143.640625)"/>
<path d="M0 0 C5.14001417 1.63802649 8.54491113 4.90499407 12.36328125 8.54296875 C15.2114334 11.0804134 16.84582586 11.98246904 20.67578125 12.41796875 C24.75288506 11.90533643 26.83482643 10.57630407 30 8 C30.66 7.01 31.32 6.02 32 5 C32.99 5.33 33.98 5.66 35 6 C35.144375 6.639375 35.28875 7.27875 35.4375 7.9375 C35.623125 8.618125 35.80875 9.29875 36 10 C36.63019043 10.29656494 37.26038086 10.59312988 37.90966797 10.89868164 C40.41642162 12.21939709 40.88225195 13.12581166 42.0078125 15.68359375 C42.52093994 16.81438354 42.52093994 16.81438354 43.04443359 17.96801758 C43.40102051 18.78294678 43.75760742 19.59787598 44.125 20.4375 C44.90781259 22.16051519 45.694393 23.8818226 46.484375 25.6015625 C46.89236328 26.49004883 47.30035156 27.37853516 47.72070312 28.29394531 C50.54970226 34.27803432 53.7204741 40.08761857 56.8359375 45.92578125 C59.9086739 51.70505578 62.33784024 56.37840244 63 63 C62.3503125 63.47050781 61.700625 63.94101563 61.03125 64.42578125 C59.77828125 65.35970703 59.77828125 65.35970703 58.5 66.3125 C57.24703125 67.23482422 57.24703125 67.23482422 55.96875 68.17578125 C55.3190625 68.77777344 54.669375 69.37976563 54 70 C54 70.99 54 71.98 54 73 C51 74 51 74 48 74 C46.30280873 74.94726954 44.63064764 75.94228261 43 77 C43.309375 76.46375 43.61875 75.9275 43.9375 75.375 C45.17827439 72.6015043 45.5909675 69.99957163 46 67 C45.34 67 44.68 67 44 67 C44 66.34 44 65.68 44 65 C43.071875 64.731875 42.14375 64.46375 41.1875 64.1875 C38.23759634 63.08851629 36.94384814 62.37581439 35 60 C36.44572845 56.48564945 38.21048126 54.80078506 41.25 52.5625 C44.92984094 49.8041055 48.48971648 46.9702399 52 44 C51.505 42.02 51.505 42.02 51 40 C49.68 40 48.36 40 47 40 C46.67 40 46.34 40 46 40 C46 38.35 46 36.7 46 35 C45.2678125 34.72800781 44.535625 34.45601562 43.78125 34.17578125 C37.23186711 31.40701124 31.86357697 27.13377569 27 22 C24.47660616 19.6658607 22.86345814 18.19427808 19.5 17.4375 C16.72710996 17.82735528 16.72710996 17.82735528 14.5 20.5 C12 23 12 23 9.1875 23.3125 C8.465625 23.209375 7.74375 23.10625 7 23 C7 23.66 7 24.32 7 25 C6.34 25 5.68 25 5 25 C5.20625 25.598125 5.4125 26.19625 5.625 26.8125 C6 29 6 29 4 32 C2.32022882 28.75661202 0.65852568 25.50429633 -1 22.25 C-1.71542969 20.86941406 -1.71542969 20.86941406 -2.4453125 19.4609375 C-2.89648438 18.57148438 -3.34765625 17.68203125 -3.8125 16.765625 C-4.23144531 15.94868164 -4.65039062 15.13173828 -5.08203125 14.29003906 C-6 12 -6 12 -6 8 C-5.34 8 -4.68 8 -4 8 C-3.71125 7.05125 -3.4225 6.1025 -3.125 5.125 C-2 2 -2 2 0 0 Z " fill="#646873" transform="translate(210,127)"/>
<path d="M0 0 C3.7712406 1.56749418 4.72097932 4.45189392 6.296875 7.99609375 C6.97681252 9.4458064 7.65784708 10.89500491 8.33984375 12.34375 C8.69353027 13.1083252 9.0472168 13.87290039 9.41162109 14.66064453 C10.59147577 17.15280208 11.83318788 19.60445211 13.09765625 22.0546875 C13.72559082 23.2758728 13.72559082 23.2758728 14.36621094 24.52172852 C15.18701115 26.11416475 16.01180666 27.70454877 16.84082031 29.29272461 C17.80298925 31.18528482 18.68322448 33.11909356 19.546875 35.05859375 C19.051875 36.04859375 19.051875 36.04859375 18.546875 37.05859375 C17.17124646 35.76894199 15.83921107 34.43170082 14.546875 33.05859375 C14.546875 32.39859375 14.546875 31.73859375 14.546875 31.05859375 C13.886875 31.05859375 13.226875 31.05859375 12.546875 31.05859375 C11.928125 31.84234375 11.309375 32.62609375 10.671875 33.43359375 C7.67271655 37.13843654 6.0099492 37.9022749 1.29296875 38.40625 C-3.27070615 37.98271813 -5.39006856 36.22103335 -8.578125 33.18359375 C-11.98615397 30.03975307 -14.95244635 27.49287596 -19.453125 26.05859375 C-20.773125 28.36859375 -22.093125 30.67859375 -23.453125 33.05859375 C-24.113125 33.05859375 -24.773125 33.05859375 -25.453125 33.05859375 C-25.783125 33.71859375 -26.113125 34.37859375 -26.453125 35.05859375 C-34.52233932 19.51543501 -34.52233932 19.51543501 -36.453125 11.05859375 C-35.133125 11.38859375 -33.813125 11.71859375 -32.453125 12.05859375 C-32.123125 11.39859375 -31.793125 10.73859375 -31.453125 10.05859375 C-30.64875 10.98671875 -30.64875 10.98671875 -29.828125 11.93359375 C-27.14209477 14.33688395 -24.89897938 15.11881528 -21.453125 16.05859375 C-21.123125 15.06859375 -20.793125 14.07859375 -20.453125 13.05859375 C-18.34375 11.375 -18.34375 11.375 -15.703125 9.62109375 C-12.15922216 7.22478855 -8.76617771 4.76927324 -5.453125 2.05859375 C-2.453125 0.05859375 -2.453125 0.05859375 0 0 Z " fill="#393D42" transform="translate(229.453125,101.94140625)"/>
<path d="M0 0 C2.475 0.495 2.475 0.495 5 1 C5 1.66 5 2.32 5 3 C5.66 3 6.32 3 7 3 C7.66 3.66 8.32 4.32 9 5 C9.66 5 10.32 5 11 5 C11.66 3.35 12.32 1.7 13 0 C13.33 0.99 13.66 1.98 14 3 C14.99 3 15.98 3 17 3 C17.49628906 3.99257812 17.99257813 4.98515625 18.50390625 6.0078125 C18.82931396 6.6582251 19.15472168 7.3086377 19.48999023 7.97875977 C20.21085389 9.42130755 20.93039731 10.86451577 21.64868164 12.30834961 C23.42089802 15.86643582 25.20730312 19.41386869 27.0546875 22.93359375 C27.37236084 23.54638184 27.69003418 24.15916992 28.01733398 24.79052734 C28.88908084 26.46925875 29.77043565 28.14299064 30.65234375 29.81640625 C32.10413551 33.24600127 32.63210447 36.30707396 33 40 C32.3503125 40.47050781 31.700625 40.94101563 31.03125 41.42578125 C30.1959375 42.04839844 29.360625 42.67101562 28.5 43.3125 C27.24703125 44.23482422 27.24703125 44.23482422 25.96875 45.17578125 C25.3190625 45.77777344 24.669375 46.37976563 24 47 C24 47.99 24 48.98 24 50 C21 51 21 51 18 51 C16.30280873 51.94726954 14.63064764 52.94228261 13 54 C13.309375 53.46375 13.61875 52.9275 13.9375 52.375 C15.17827439 49.6015043 15.5909675 46.99957163 16 44 C15.34 44 14.68 44 14 44 C14 43.34 14 42.68 14 42 C13.071875 41.731875 12.14375 41.46375 11.1875 41.1875 C8.23759634 40.08851629 6.94384814 39.37581439 5 37 C6.44572845 33.48564945 8.21048126 31.80078506 11.25 29.5625 C14.92984094 26.8041055 18.48971648 23.9702399 22 21 C21.67 19.68 21.34 18.36 21 17 C19.68 17 18.36 17 17 17 C16.67 17 16.34 17 16 17 C16 15.35 16 13.7 16 12 C15.27167969 11.72929687 14.54335937 11.45859375 13.79296875 11.1796875 C11.08050039 10.03400156 8.7718156 8.73670768 6.3125 7.125 C5.16201172 6.38636719 5.16201172 6.38636719 3.98828125 5.6328125 C1.87586598 3.8980589 1.01584106 2.50972496 0 0 Z " fill="#838694" transform="translate(240,150)"/>
<path d="M0 0 C0.625 1.8125 0.625 1.8125 1 4 C-1 7 -1 7 -3.5625 7.625 C-4.366875 7.74875 -5.17125 7.8725 -6 8 C-6.33 8.33 -6.66 8.66 -7 9 C66.755 9.495 66.755 9.495 142 10 C142.33 9.01 142.66 8.02 143 7 C143.33 8.32 143.66 9.64 144 11 C141.29447238 12.35276381 139.19135116 12.12593128 136.161026 12.12698364 C134.91731735 12.12980347 133.6736087 12.13262329 132.39221191 12.13552856 C131.00634751 12.13358407 129.62048325 12.13153589 128.23461914 12.12939453 C126.78108171 12.13074895 125.32754462 12.13252912 123.87400818 12.13470459 C119.91949732 12.13927446 115.96501247 12.13749108 112.01050115 12.1343255 C107.87723421 12.13179913 103.74396954 12.13414026 99.61070251 12.13571167 C92.66762898 12.13753275 85.72456607 12.13512887 78.78149414 12.13037109 C70.74945698 12.12493073 62.7174452 12.12668973 54.68540865 12.1321975 C47.79620428 12.13673291 40.90700756 12.13737701 34.01780218 12.13475883 C29.90021596 12.13319815 25.78264168 12.13299656 21.66505623 12.13629532 C17.79340868 12.13918016 13.92179392 12.137187 10.05014992 12.13140106 C8.6275208 12.13007668 7.20488893 12.13046216 5.78226089 12.13266373 C3.84349413 12.13538781 1.90472136 12.1313694 -0.03404236 12.12698364 C-1.66310217 12.1264181 -1.66310217 12.1264181 -3.32507229 12.12584114 C-6 12 -6 12 -9 11 C-8.46324097 7.14896699 -6.88399077 5.68202413 -3.9375 3.25 C-3.20402344 2.63640625 -2.47054687 2.0228125 -1.71484375 1.390625 C-1.14894531 0.93171875 -0.58304688 0.4728125 0 0 Z " fill="#2A2D31" transform="translate(52,182)"/>
<path d="M0 0 C4.46846084 1.4483409 7.59112795 3.94344599 11.0625 7 C15.65880923 11.05075897 15.65880923 11.05075897 21 14 C20.2575 14.28875 19.515 14.5775 18.75 14.875 C14.81797588 16.48355532 11.88641707 17.82494122 9 21 C5.9168649 19.80100302 2.93720508 18.52299523 0 17 C0.66 18.32 1.32 19.64 2 21 C1.34 21.99 0.68 22.98 0 24 C-1.0098473 22.08850332 -2.00754495 20.17058431 -3 18.25 C-3.556875 17.18265625 -4.11375 16.1153125 -4.6875 15.015625 C-6 12 -6 12 -6 8 C-5.34 8 -4.68 8 -4 8 C-3.71125 7.05125 -3.4225 6.1025 -3.125 5.125 C-2 2 -2 2 0 0 Z " fill="#585D66" transform="translate(210,127)"/>
<path d="M0 0 C0.87885361 -0.00428513 1.75770721 -0.00857025 2.66319275 -0.01298523 C4.52000059 -0.01872614 6.37683093 -0.01923055 8.23364258 -0.01489258 C11.08258085 -0.01172682 13.93048659 -0.03521428 16.77929688 -0.06054688 C18.58202994 -0.06281922 20.3847658 -0.06352366 22.1875 -0.0625 C23.04271744 -0.07170975 23.89793488 -0.08091949 24.77906799 -0.09040833 C27.17602539 -0.0715332 27.17602539 -0.0715332 31.02734375 0.30078125 C32.01734375 1.78578125 32.01734375 1.78578125 33.02734375 3.30078125 C32.36734375 4.29078125 31.70734375 5.28078125 31.02734375 6.30078125 C30.53234375 4.81578125 30.53234375 4.81578125 30.02734375 3.30078125 C24.54650738 3.15238315 19.06684133 3.04354362 13.58447266 2.97119141 C11.72000764 2.94103047 9.85568438 2.90009434 7.99169922 2.84814453 C5.31051697 2.77529408 2.63121052 2.74132007 -0.05078125 2.71484375 C-0.8832135 2.68387604 -1.71564575 2.65290833 -2.57330322 2.6210022 C-4.85824667 2.61967549 -6.77186239 2.68386705 -8.97265625 3.30078125 C-11.78694621 6.43582935 -12.97265625 8.06676121 -12.97265625 12.30078125 C-14.43700082 14.98241839 -16.10075668 17.4985258 -17.76171875 20.0625 C-22.07275266 26.87967113 -22.07275266 26.87967113 -23.47265625 34.67578125 C-23.59289432 38.85739429 -23.59289432 38.85739429 -25.46484375 41.04296875 C-26.70155485 42.03336394 -27.96340023 42.99330772 -29.25 43.91796875 C-31.75368437 45.92772899 -32.78711867 48.37180606 -33.97265625 51.30078125 C-34.30265625 50.64078125 -34.63265625 49.98078125 -34.97265625 49.30078125 C-34.2668457 47.34326172 -34.2668457 47.34326172 -33.0859375 44.91796875 C-32.64765625 44.00877686 -32.209375 43.09958496 -31.7578125 42.1628418 C-31.27183594 41.17711182 -30.78585937 40.19138184 -30.28515625 39.17578125 C-29.79273438 38.16491455 -29.3003125 37.15404785 -28.79296875 36.11254883 C-27.7404741 33.95768534 -26.68385416 31.80483282 -25.62353516 29.65380859 C-23.96117099 26.27745404 -22.31598413 22.89308734 -20.671875 19.5078125 C-19.60653426 17.33411288 -18.54015797 15.16092043 -17.47265625 12.98828125 C-16.71722534 11.43246338 -16.71722534 11.43246338 -15.9465332 9.84521484 C-15.47046631 8.88566895 -14.99439941 7.92612305 -14.50390625 6.9375 C-13.87838867 5.66459106 -13.87838867 5.66459106 -13.24023438 4.3659668 C-10.084419 -0.77560529 -5.35981011 -0.00572552 0 0 Z " fill="#141617" transform="translate(362.97265625,56.69921875)"/>
<path d="M0 0 C0.83311203 -0.00335861 1.66622406 -0.00671722 2.52458191 -0.01017761 C5.27022809 -0.01965374 8.01581311 -0.02162876 10.76147461 -0.02270508 C12.67288742 -0.02591897 14.58429999 -0.02928314 16.49571228 -0.03279114 C20.49779837 -0.03877332 24.49986288 -0.04063187 28.50195312 -0.04003906 C33.63230255 -0.03993726 38.76251414 -0.05361223 43.89283085 -0.07081127 C47.83817685 -0.08192115 51.78348936 -0.08395862 55.72884941 -0.08342934 C57.62069615 -0.0846101 59.51254374 -0.08903729 61.40437508 -0.0967617 C64.04702611 -0.10654513 66.68937549 -0.10369055 69.33203125 -0.09765625 C70.11395844 -0.10327576 70.89588562 -0.10889526 71.70150757 -0.11468506 C75.48302373 -0.09271284 78.39528443 0.01647245 81.60131836 2.14526367 C81.27131836 2.80526367 80.94131836 3.46526367 80.60131836 4.14526367 C80.10631836 3.65026367 80.10631836 3.65026367 79.60131836 3.14526367 C76.74118939 3.02001216 73.90403682 2.95916646 71.04248047 2.93994141 C70.14500595 2.93004181 69.24753143 2.92014221 68.32286072 2.90994263 C65.34148848 2.87822827 62.36010027 2.85353111 59.37866211 2.82885742 C57.31742425 2.80829646 55.2561907 2.78730023 53.19496155 2.7658844 C47.75832592 2.71057507 42.32165169 2.66120501 36.88494873 2.61303711 C31.34180244 2.56288661 25.7987125 2.50716695 20.25561523 2.4519043 C9.3708977 2.34421441 -1.51386867 2.24279365 -12.39868164 2.14526367 C-12.39868164 3.13526367 -12.39868164 4.12526367 -12.39868164 5.14526367 C-13.71868164 4.81526367 -15.03868164 4.48526367 -16.39868164 4.14526367 C-12.22475942 -0.90737901 -6.06888172 -0.00352651 0 0 Z " fill="#2C2D30" transform="translate(95.398681640625,152.854736328125)"/>
<path d="M0 0 C0.721875 0.61875 1.44375 1.2375 2.1875 1.875 C4.78381938 3.83666353 6.94671666 4.95316 10 6 C10 6.66 10 7.32 10 8 C9.34 8 8.68 8 8 8 C8 8.66 8 9.32 8 10 C8.66 10 9.32 10 10 10 C10 10.66 10 11.32 10 12 C11.32 12.66 12.64 13.32 14 14 C12.35 16.97 10.7 19.94 9 23 C8.34 23 7.68 23 7 23 C6.67 23.66 6.34 24.32 6 25 C-2.06921432 9.45684126 -2.06921432 9.45684126 -4 1 C-2.68 1.33 -1.36 1.66 0 2 C0 1.34 0 0.68 0 0 Z " fill="#3B3E44" transform="translate(197,112)"/>
<path d="M0 0 C2.31 0 4.62 0 7 0 C3.53024757 4.70095491 -0.02559917 7.56351681 -5.01171875 10.60546875 C-7.26745715 12.00827907 -7.26745715 12.00827907 -9 15 C-9.66 15 -10.32 15 -11 15 C-11.33 16.32 -11.66 17.64 -12 19 C-12.53625 19.061875 -13.0725 19.12375 -13.625 19.1875 C-16.30406354 19.9411315 -16.30406354 19.9411315 -19 22.5625 C-22 25 -22 25 -26 25 C-28.20067421 25.93283296 -28.20067421 25.93283296 -30 27 C-26.36878079 22.55175646 -22.670558 18.67371039 -18.28125 14.9765625 C-16.55112416 13.47751511 -14.87191858 11.9194501 -13.21875 10.3359375 C-12.73752686 9.87743408 -12.25630371 9.41893066 -11.76049805 8.9465332 C-10.37122896 7.61863463 -8.99201785 6.28023731 -7.61328125 4.94140625 C-4.73029017 2.79963261 -3.49819705 2.53987678 0 3 C0 2.01 0 1.02 0 0 Z " fill="#60636D" transform="translate(83,155)"/>
<path d="M0 0 C0.33 0.66 0.66 1.32 1 2 C0.1706543 4.22045898 0.1706543 4.22045898 -1.17578125 6.99609375 C-1.91610596 8.53293823 -1.91610596 8.53293823 -2.67138672 10.10083008 C-3.2129541 11.20193115 -3.75452148 12.30303223 -4.3125 13.4375 C-4.85922363 14.56244873 -5.40594727 15.68739746 -5.96923828 16.84643555 C-10.08631915 25.26752016 -14.38107146 33.58406095 -18.796875 41.8515625 C-21.64155862 47.17981705 -24.33784784 52.57829987 -27 58 C-29 55 -29 55 -29 53 C-28.34 53 -27.68 53 -27 53 C-26.7834375 52.13375 -26.7834375 52.13375 -26.5625 51.25 C-26.20574762 49.82299047 -25.81374097 48.4039711 -25.375 47 C-24.94274113 44.69461938 -25.28879045 43.21265195 -26 41 C-23.35261084 39.5393715 -22.10551666 39 -19 39 C-18.896875 37.906875 -18.79375 36.81375 -18.6875 35.6875 C-17.95695053 31.76909832 -17.66283178 31.52028278 -15 29 C-13.90845905 27.25538877 -13.90845905 27.25538877 -12.9921875 25.34765625 C-12.64542969 24.65349609 -12.29867188 23.95933594 -11.94140625 23.24414062 C-11.58949219 22.52419922 -11.23757813 21.80425781 -10.875 21.0625 C-10.51535156 20.34642578 -10.15570313 19.63035156 -9.78515625 18.89257812 C-8.15720502 15.60314108 -6.79819753 12.59886438 -6 9 C-5.34 9 -4.68 9 -4 9 C-3.896875 7.88625 -3.79375 6.7725 -3.6875 5.625 C-3.460625 4.42875 -3.23375 3.2325 -3 2 C-2.01 1.34 -1.02 0.68 0 0 Z " fill="#151617" transform="translate(379,91)"/>
<path d="M0 0 C1.32 0.33 2.64 0.66 4 1 C3.484375 1.7425 2.96875 2.485 2.4375 3.25 C1.6200453 4.49676544 0.80855328 5.74744348 0 7 C-0.59039062 7.8971875 -1.18078125 8.794375 -1.7890625 9.71875 C-6.0985734 16.5589219 -6.0985734 16.5589219 -7.5 24.375 C-7.62023807 28.55661304 -7.62023807 28.55661304 -9.4921875 30.7421875 C-10.7288986 31.73258269 -11.99074398 32.69252647 -13.27734375 33.6171875 C-15.78102812 35.62694774 -16.81446242 38.07102481 -18 41 C-18.33 40.34 -18.66 39.68 -19 39 C-18.23071289 36.91552734 -18.23071289 36.91552734 -16.97265625 34.3359375 C-16.5135083 33.38533447 -16.05436035 32.43473145 -15.58129883 31.45532227 C-15.08009521 30.43881592 -14.5788916 29.42230957 -14.0625 28.375 C-13.56194092 27.3449585 -13.06138184 26.31491699 -12.5456543 25.25366211 C-8.42873499 16.80369673 -4.24734039 8.38515051 0 0 Z " fill="#24282B" transform="translate(347,67)"/>
<path d="M0 0 C3.69418201 1.231394 5.35109746 3.20791354 8 6 C8.99 5.01 9.98 4.02 11 3 C11.66 3.33 12.32 3.66 13 4 C12.67 4.99 12.34 5.98 12 7 C16.18590861 4.26051081 16.18590861 4.26051081 20.125 1.1875 C22 0 22 0 24.0625 -0.0625 C27.06361532 1.58327292 27.79490197 3.8921156 29 7 C28.67 7.66 28.34 8.32 28 9 C26.62437146 7.71034824 25.29233607 6.37310707 24 5 C24 4.34 24 3.68 24 3 C23.34 3 22.68 3 22 3 C21.38125 3.78375 20.7625 4.5675 20.125 5.375 C17.08765114 9.12701917 15.38473853 9.82049686 10.625 10.4375 C5.86078081 9.86250803 4.38186584 8.2993813 1 5 C1.33 4.01 1.66 3.02 2 2 C1.34 2 0.68 2 0 2 C0 1.34 0 0.68 0 0 Z " fill="#51565C" transform="translate(220,130)"/>
<path d="M0 0 C0 0.33 0 0.66 0 1 C-0.9075 1.2475 -1.815 1.495 -2.75 1.75 C-6.05645971 2.76072888 -6.05645971 2.76072888 -8.0625 5.125 C-10 7 -10 7 -12.75 7.25 C-13.4925 7.1675 -14.235 7.085 -15 7 C-15 7.66 -15 8.32 -15 9 C-15.66 9 -16.32 9 -17 9 C-16.79375 9.598125 -16.5875 10.19625 -16.375 10.8125 C-16 13 -16 13 -18 16 C-20.44637142 11.71885001 -21.21791122 8.90300248 -21 4 C-21.33 3.01 -21.66 2.02 -22 1 C-19.6736924 1.51695724 -17.59109741 2.16550819 -15.375 3.0625 C-13.11550447 4.12238884 -13.11550447 4.12238884 -11 4 C-10.67 3.01 -10.34 2.02 -10 1 C-6.34742296 -0.62336757 -3.80637601 -1.46399077 0 0 Z " fill="#8A8D9B" transform="translate(232,143)"/>
<path d="M0 0 C0.625 1.8125 0.625 1.8125 1 4 C-1 7 -1 7 -3.5625 7.625 C-4.366875 7.74875 -5.17125 7.8725 -6 8 C-6.33 8.33 -6.66 8.66 -7 9 C9.83 9.33 26.66 9.66 44 10 C44 10.33 44 10.66 44 11 C36.93432061 11.16814982 29.86848941 11.3280544 22.80249023 11.48217773 C20.39782467 11.53560753 17.99320056 11.59093763 15.58862305 11.64819336 C12.13599588 11.73007666 8.68327822 11.80516584 5.23046875 11.87890625 C4.15226364 11.90594131 3.07405853 11.93297638 1.96318054 11.96083069 C0.96236954 11.98092697 -0.03844147 12.00102325 -1.06958008 12.02172852 C-1.95116287 12.04171402 -2.83274567 12.06169952 -3.74104309 12.08229065 C-6 12 -6 12 -9 11 C-8.46324097 7.14896699 -6.88399077 5.68202413 -3.9375 3.25 C-3.20402344 2.63640625 -2.47054687 2.0228125 -1.71484375 1.390625 C-1.14894531 0.93171875 -0.58304688 0.4728125 0 0 Z " fill="#59595E" transform="translate(52,182)"/>
<path d="M0 0 C-1.37154504 2.95409701 -2.98863724 5.44008376 -5 8 C-4.01 9.485 -4.01 9.485 -3 11 C-0.41619823 11.25030977 -0.41619823 11.25030977 2 11 C1.67 11.66 1.34 12.32 1 13 C0.10796875 12.98839844 -0.7840625 12.97679687 -1.703125 12.96484375 C-2.87359375 12.95582031 -4.0440625 12.94679687 -5.25 12.9375 C-6.41015625 12.92589844 -7.5703125 12.91429687 -8.765625 12.90234375 C-11.40977128 12.98217908 -13.49826091 13.21356222 -16 14 C-14.1875 12 -14.1875 12 -12 10 C-11.01 10 -10.02 10 -9 10 C-8.773125 9.0925 -8.54625 8.185 -8.3125 7.25 C-6.78194899 3.46006417 -4.45601932 0 0 0 Z " fill="#9696A4" transform="translate(60,178)"/>
<path d="M0 0 C0.66 0.66 1.32 1.32 2 2 C1.649375 2.556875 1.29875 3.11375 0.9375 3.6875 C-0.25344649 5.99900551 -0.25344649 5.99900551 0.5625 8.5625 C0.706875 9.366875 0.85125 10.17125 1 11 C-0.3125 12.8125 -0.3125 12.8125 -2 14 C-2.66 14 -3.32 14 -4 14 C-4 14.99 -4 15.98 -4 17 C-5.82193842 18.9249647 -7.89235283 20.37535531 -10 22 C-9.34968323 18.96718632 -8.33488229 16.43497916 -6.93359375 13.671875 C-6.53076172 12.87265625 -6.12792969 12.0734375 -5.71289062 11.25 C-5.29201172 10.425 -4.87113281 9.6 -4.4375 8.75 C-4.01275391 7.90953125 -3.58800781 7.0690625 -3.15039062 6.203125 C-2.10385089 4.13356328 -1.05361686 2.06596521 0 0 Z " fill="#313439" transform="translate(327,108)"/>
<path d="M0 0 C-0.32577631 7.16707877 -3.65443628 12.76927124 -7 19 C-9 16 -9 16 -9 14 C-8.34 14 -7.68 14 -7 14 C-6.855625 13.4225 -6.71125 12.845 -6.5625 12.25 C-6.20574762 10.82299047 -5.81374097 9.4039711 -5.375 8 C-4.94274113 5.69461938 -5.28879045 4.21265195 -6 2 C-2.25 0 -2.25 0 0 0 Z " fill="#323639" transform="translate(359,130)"/>
<path d="M0 0 C0.66 0.33 1.32 0.66 2 1 C1.01 1.33 0.02 1.66 -1 2 C-1.73323796 4.01508358 -1.73323796 4.01508358 -2 6 C-2.53625 6.061875 -3.0725 6.12375 -3.625 6.1875 C-6.30406354 6.9411315 -6.30406354 6.9411315 -9 9.5625 C-12 12 -12 12 -16 12 C-18.20067421 12.93283296 -18.20067421 12.93283296 -20 14 C-16.20896591 8.88784797 -12.27575212 4.8198343 -6 3 C-5.01 3.33 -4.02 3.66 -3 4 C-3 3.01 -3 2.02 -3 1 C-2.01 0.67 -1.02 0.34 0 0 Z " fill="#6F717D" transform="translate(73,168)"/>
<path d="M0 0 C1.13115234 0.01450195 1.13115234 0.01450195 2.28515625 0.02929688 C3.45111328 0.06700195 3.45111328 0.06700195 4.640625 0.10546875 C5.43339844 0.11900391 6.22617188 0.13253906 7.04296875 0.14648438 C8.99248064 0.18171652 10.94164126 0.23552054 12.890625 0.29296875 C12.890625 1.28296875 12.890625 2.27296875 12.890625 3.29296875 C5.960625 3.29296875 -0.969375 3.29296875 -8.109375 3.29296875 C-3.609375 -0.08203125 -3.609375 -0.08203125 0 0 Z " fill="#989AA7" transform="translate(131.109375,154.70703125)"/>
<path d="M0 0 C-0.82766934 5.79368537 -5.63928417 8.60833213 -10 12 C-10.66 11.67 -11.32 11.34 -12 11 C-12 7 -12 7 -10.13671875 5.078125 C-9.32847656 4.47484375 -8.52023437 3.8715625 -7.6875 3.25 C-6.88699219 2.63640625 -6.08648437 2.0228125 -5.26171875 1.390625 C-3 0 -3 0 0 0 Z " fill="#3F3F44" transform="translate(370,82)"/>
<path d="M0 0 C0.33 0.66 0.66 1.32 1 2 C1.66 2.33 2.32 2.66 3 3 C3 4.32 3 5.64 3 7 C2.34 7 1.68 7 1 7 C1.33 7.99 1.66 8.98 2 10 C1.01 10.495 1.01 10.495 0 11 C0 10.01 0 9.02 0 8 C-0.66 8 -1.32 8 -2 8 C-2.33 9.32 -2.66 10.64 -3 12 C-3.66 12 -4.32 12 -5 12 C-5.33 13.65 -5.66 15.3 -6 17 C-6.66 17 -7.32 17 -8 17 C-6.3341708 10.83643195 -3.12194714 5.51740344 0 0 Z " fill="#313337" transform="translate(315,132)"/>
<path d="M0 0 C3.96064107 1.74268207 7.74436549 4.14674729 11 7 C11 7.66 11 8.32 11 9 C8 11 8 11 5.953125 10.87109375 C3.38886779 9.72743503 2.90141854 8.58922403 1.75 6.0625 C1.41484375 5.35222656 1.0796875 4.64195313 0.734375 3.91015625 C0 2 0 2 0 0 Z " fill="#52555A" transform="translate(193,113)"/>
<path d="M0 0 C2.52394612 3.12488567 4.39701907 6.31314387 6 10 C5 12 5 12 2.6875 13.125 C0 14 0 14 -4 14 C-3.1875 12.0625 -3.1875 12.0625 -2 10 C-1.01 9.67 -0.02 9.34 1 9 C1.73323796 6.98491642 1.73323796 6.98491642 2 5 C1.01 5 0.02 5 -1 5 C-0.67 3.35 -0.34 1.7 0 0 Z " fill="#33383D" transform="translate(239,119)"/>
<path d="M0 0 C2.31 0.33 4.62 0.66 7 1 C9.09230769 5.43076923 9.09230769 5.43076923 8.625 8.3125 C8.41875 8.869375 8.2125 9.42625 8 10 C6.25 9.9375 6.25 9.9375 4 9 C1.99159505 6.29950956 0 3.44873267 0 0 Z " fill="#868792" transform="translate(231,191)"/>
<path d="M0 0 C0.33 0.99 0.66 1.98 1 3 C-5.15234375 3.87890625 -5.15234375 3.87890625 -7 4 C-7.33 3.67 -7.66 3.34 -8 3 C-9.69752187 3.25245197 -11.38471545 3.57645775 -13.0625 3.9375 C-13.98160156 4.13214844 -14.90070313 4.32679688 -15.84765625 4.52734375 C-16.55792969 4.68332031 -17.26820312 4.83929688 -18 5 C-13.46586082 -1.71724322 -7.50434409 -0.4944297 0 0 Z " fill="#898B98" transform="translate(103,155)"/>
<path d="M0 0 C0.66 0 1.32 0 2 0 C2.4375 2.625 2.4375 2.625 2 6 C0.37785567 7.70063518 -1.37691626 9.04929018 -3.2421875 10.4765625 C-5.69052563 12.59845555 -6.79863159 15.03191335 -8 18 C-8.33 17.34 -8.66 16.68 -9 16 C-7.890625 13.21484375 -7.890625 13.21484375 -6.25 9.9375 C-5.71890625 8.85339844 -5.1878125 7.76929687 -4.640625 6.65234375 C-3 4 -3 4 0 3 C0 2.01 0 1.02 0 0 Z " fill="#2A2C2F" transform="translate(337,90)"/>
<path d="M0 0 C0.598125 0.495 1.19625 0.99 1.8125 1.5 C3.97029994 3.28276418 3.97029994 3.28276418 7 3 C7 3.66 7 4.32 7 5 C7.66 5 8.32 5 9 5 C9.33 6.32 9.66 7.64 10 9 C7.92446352 9.5534764 6.15634036 10 4 10 C4.33 8.68 4.66 7.36 5 6 C4.01 6.33 3.02 6.66 2 7 C1.34 6.67 0.68 6.34 0 6 C0 4.02 0 2.04 0 0 Z " fill="#828593" transform="translate(277,198)"/>
<path d="M0 0 C1.32 0.33 2.64 0.66 4 1 C4.39012425 2.76756294 4.7616098 4.53924783 5.125 6.3125 C5.33382812 7.29863281 5.54265625 8.28476563 5.7578125 9.30078125 C6 12 6 12 4 15 C1.55362858 10.71885001 0.78208878 7.90300248 1 3 C0.67 2.01 0.34 1.02 0 0 Z " fill="#9497A2" transform="translate(210,144)"/>
<path d="M0 0 C-0.54339792 4.56454251 -1.79463821 7.9728176 -4 12 C-5.32 11.67 -6.64 11.34 -8 11 C-7.7834375 10.44570312 -7.566875 9.89140625 -7.34375 9.3203125 C-7.0653125 8.59585938 -6.786875 7.87140625 -6.5 7.125 C-6.2215625 6.40570313 -5.943125 5.68640625 -5.65625 4.9453125 C-4.89344982 3.02632539 -4.89344982 3.02632539 -5 1 C-2 0 -2 0 0 0 Z " fill="#8C8E99" transform="translate(328,192)"/>
<path d="M0 0 C3.69418201 1.231394 5.35109746 3.20791354 8 6 C8.99 5.01 9.98 4.02 11 3 C11.66 3.33 12.32 3.66 13 4 C12.34 5.98 11.68 7.96 11 10 C6.16743695 9.58578031 4.17320782 7.53586014 1 4 C1.33 3.34 1.66 2.68 2 2 C1.34 2 0.68 2 0 2 C0 1.34 0 0.68 0 0 Z " fill="#42474E" transform="translate(220,130)"/>
<path d="M0 0 C0.66 0.33 1.32 0.66 2 1 C1.67 2.32 1.34 3.64 1 5 C-0.65 5.33 -2.3 5.66 -4 6 C-4 6.99 -4 7.98 -4 9 C-6.31 9.33 -8.62 9.66 -11 10 C-4.68882603 2.08392268 -4.68882603 2.08392268 0 0 Z " fill="#696B75" transform="translate(74,163)"/>
<path d="M0 0 C1.65 0 3.3 0 5 0 C6.10844919 3.32534757 5.84454356 5.62182575 5 9 C2 8 2 8 0.8125 6.1875 C0 4 0 4 0 0 Z " fill="#7D808B" transform="translate(241,208)"/>
<path d="M0 0 C1.97566188 1.97566188 2.89579072 3.52337094 4.125 6 C4.47820312 6.70125 4.83140625 7.4025 5.1953125 8.125 C6 10 6 10 6 12 C4.35 11.67 2.7 11.34 1 11 C1.33 9.35 1.66 7.7 2 6 C1.01 6.33 0.02 6.66 -1 7 C-0.67 4.69 -0.34 2.38 0 0 Z " fill="#5D5E66" transform="translate(256,153)"/>
<path d="M0 0 C0.99 0.33 1.98 0.66 3 1 C3 1.66 3 2.32 3 3 C3.66 3.33 4.32 3.66 5 4 C4.67 4.99 4.34 5.98 4 7 C3.01 7 2.02 7 1 7 C0.34 6.01 -0.32 5.02 -1 4 C-1.99 4 -2.98 4 -4 4 C-2.68 2.68 -1.36 1.36 0 0 Z " fill="#545661" transform="translate(60,268)"/>
<path d="M0 0 C0.33 0.66 0.66 1.32 1 2 C0.00390625 4.6015625 0.00390625 4.6015625 -1.4375 7.625 C-1.91058594 8.62789062 -2.38367188 9.63078125 -2.87109375 10.6640625 C-3.24363281 11.43492188 -3.61617188 12.20578125 -4 13 C-4.66 13 -5.32 13 -6 13 C-6 11.68 -6 10.36 -6 9 C-5.34 9 -4.68 9 -4 9 C-3.8453125 7.329375 -3.8453125 7.329375 -3.6875 5.625 C-3.460625 4.42875 -3.23375 3.2325 -3 2 C-2.01 1.34 -1.02 0.68 0 0 Z " fill="#1B1C1E" transform="translate(379,91)"/>
<path d="M0 0 C0 0.99 0 1.98 0 3 C-0.66 2.67 -1.32 2.34 -2 2 C-1.34 1.34 -0.68 0.68 0 0 Z M-5 3 C-4.01 3.33 -3.02 3.66 -2 4 C-4.75 10.875 -4.75 10.875 -7 12 C-7 10.02 -7 8.04 -7 6 C-6.34 6 -5.68 6 -5 6 C-5 5.01 -5 4.02 -5 3 Z " fill="#898B97" transform="translate(299,173)"/>
<path d="M0 0 C2.97 0 5.94 0 9 0 C9 1.32 9 2.64 9 4 C5.7 3.34 2.4 2.68 -1 2 C-0.67 1.34 -0.34 0.68 0 0 Z " fill="#9698A5" transform="translate(103,155)"/>
<path d="M0 0 C1.27903133 3.83709399 0.50674062 5.30848548 -1 9 C-2.625 11.375 -2.625 11.375 -4 13 C-4.33 11.35 -4.66 9.7 -5 8 C-4.34 8 -3.68 8 -3 8 C-2.87625 7.4225 -2.7525 6.845 -2.625 6.25 C-1.99351176 3.97664233 -1.11141809 2.0746471 0 0 Z " fill="#393B40" transform="translate(355,136)"/>
<path d="M0 0 C1.5625 1.75 1.5625 1.75 3 4 C2.6875 6.25 2.6875 6.25 2 8 C0.0625 7.3125 0.0625 7.3125 -2 6 C-2.75 3.375 -2.75 3.375 -3 1 C-2.01 1.33 -1.02 1.66 0 2 C0 1.34 0 0.68 0 0 Z " fill="#7F8490" transform="translate(253,225)"/>
<path d="M0 0 C1.32 0 2.64 0 4 0 C3.67 1.65 3.34 3.3 3 5 C3.66 5 4.32 5 5 5 C5.33 4.34 5.66 3.68 6 3 C6 3.99 6 4.98 6 6 C6.66 6 7.32 6 8 6 C7.67 6.66 7.34 7.32 7 8 C5.33333333 8 3.66666667 8 2 8 C2 6.35 2 4.7 2 3 C1.01 2.67 0.02 2.34 -1 2 C-0.67 1.34 -0.34 0.68 0 0 Z " fill="#9496A3" transform="translate(254,159)"/>
<path d="M0 0 C0 0.66 0 1.32 0 2 C-3 4 -3 4 -5.1875 3.625 C-5.785625 3.41875 -6.38375 3.2125 -7 3 C-7 2.01 -7 1.02 -7 0 C-4.3333581 -1.33332095 -2.83319697 -0.67102033 0 0 Z " fill="#585C62" transform="translate(204,120)"/>
<path d="M0 0 C1.109375 3.7421875 1.109375 3.7421875 0.125 6.0625 C-0.24625 6.701875 -0.6175 7.34125 -1 8 C-1.33 8.99 -1.66 9.98 -2 11 C-2.66 11 -3.32 11 -4 11 C-4 11.99 -4 12.98 -4 14 C-4.66 14 -5.32 14 -6 14 C-4.50829734 9.0276578 -2.39542583 4.58154261 0 0 Z " fill="#1A1C1E" transform="translate(341,79)"/>
<path d="M0 0 C1.74627478 2.61941217 2.38722388 4.03824877 3 7 C1.02 7.33 -0.96 7.66 -3 8 C-1.125 2.25 -1.125 2.25 0 0 Z " fill="#5A5D65" transform="translate(287,187)"/>
<path d="M0 0 C1.32 0.33 2.64 0.66 4 1 C4 1.66 4 2.32 4 3 C3.34 3 2.68 3 2 3 C2.66 4.32 3.32 5.64 4 7 C3.01 8.485 3.01 8.485 2 10 C-0.09350689 6.5980513 -0.17942163 3.94727588 0 0 Z " fill="#656872" transform="translate(208,141)"/>
<path d="M0 0 C1 3 1 3 0.00390625 5.48046875 C-0.47175781 6.37378906 -0.94742187 7.26710938 -1.4375 8.1875 C-1.91058594 9.08855469 -2.38367188 9.98960938 -2.87109375 10.91796875 C-3.24363281 11.60503906 -3.61617188 12.29210937 -4 13 C-4.33 12.34 -4.66 11.68 -5 11 C-5.99 11 -6.98 11 -8 11 C-7 9 -7 9 -4 8 C-2.76722873 6.13977928 -2.76722873 6.13977928 -1.8125 3.9375 C-1.46832031 3.20402344 -1.12414062 2.47054687 -0.76953125 1.71484375 C-0.51558594 1.14894531 -0.26164062 0.58304687 0 0 Z " fill="#141416" transform="translate(385,78)"/>
<path d="M0 0 C0.66 1.32 1.32 2.64 2 4 C0.71034824 5.37562854 -0.62689293 6.70766393 -2 8 C-2.66 8 -3.32 8 -4 8 C-3.67 6.02 -3.34 4.04 -3 2 C-2.34 2.33 -1.68 2.66 -1 3 C-0.67 2.01 -0.34 1.02 0 0 Z " fill="#A2A3B1" transform="translate(261,167)"/>
<path d="M0 0 C0 0.33 0 0.66 0 1 C-3.64793184 2.27253436 -7.1936543 3.32829194 -11 4 C-10.67 3.01 -10.34 2.02 -10 1 C-6.34742296 -0.62336757 -3.80637601 -1.46399077 0 0 Z " fill="#818491" transform="translate(232,143)"/>
<path d="M0 0 C0.66 0 1.32 0 2 0 C2.625 1.8125 2.625 1.8125 3 4 C2.01 5.485 2.01 5.485 1 7 C0.34 7 -0.32 7 -1 7 C-1.625 4.625 -1.625 4.625 -2 2 C-1.34 1.34 -0.68 0.68 0 0 Z " fill="#B9B9C6" transform="translate(221,162)"/>
<path d="M0 0 C0.66 0 1.32 0 2 0 C2 1.98 2 3.96 2 6 C0.35 6.33 -1.3 6.66 -3 7 C-3.33 6.34 -3.66 5.68 -4 5 C-3.01 5 -2.02 5 -1 5 C-0.67 3.35 -0.34 1.7 0 0 Z " fill="#51555B" transform="translate(310,144)"/>
<path d="M0 0 C2.64465038 3.1254959 3.84414715 6.08788267 5 10 C4.01 10 3.02 10 2 10 C2 8.35 2 6.7 2 5 C1.01 5 0.02 5 -1 5 C-0.67 3.35 -0.34 1.7 0 0 Z " fill="#262A2B" transform="translate(239,119)"/>
<path d="M0 0 C-0.66 1.98 -1.32 3.96 -2 6 C-3.32 5.34 -4.64 4.68 -6 4 C-6 3.34 -6 2.68 -6 2 C-3 0 -3 0 0 0 Z " fill="#3C3D42" transform="translate(284,283)"/>
<path d="M0 0 C0.33 1.32 0.66 2.64 1 4 C0.01 5.485 0.01 5.485 -1 7 C-3.625 7.1875 -3.625 7.1875 -6 7 C-4.02 4.69 -2.04 2.38 0 0 Z " fill="#6B6B76" transform="translate(52,182)"/>
<path d="M0 0 C2 2 2 2 2 5 C0.17806158 6.9249647 -1.89235283 8.37535531 -4 10 C-3.29445932 6.33118845 -1.72264494 3.29549466 0 0 Z " fill="#2A2B30" transform="translate(321,120)"/>
<path d="M0 0 C0.99 0 1.98 0 3 0 C2.49396008 2.16874252 2.00016187 3.99967627 1 6 C0.34 6 -0.32 6 -1 6 C-1.625 4.125 -1.625 4.125 -2 2 C-1.34 1.34 -0.68 0.68 0 0 Z " fill="#383A3E" transform="translate(367,82)"/>
<path d="M0 0 C3.3 0 6.6 0 10 0 C10.33 0.66 10.66 1.32 11 2 C10.01 3.485 10.01 3.485 9 5 C8.67 4.01 8.34 3.02 8 2 C5.36 1.67 2.72 1.34 0 1 C0 0.67 0 0.34 0 0 Z " fill="#16181A" transform="translate(385,58)"/>
<path d="M0 0 C0.99 0 1.98 0 3 0 C3.33 2.31 3.66 4.62 4 7 C3.01 6.67 2.02 6.34 1 6 C0.67 4.02 0.34 2.04 0 0 Z " fill="#595B62" transform="translate(268,263)"/>
<path d="M0 0 C1.8125 0.875 1.8125 0.875 2.8125 2.875 C-1.6425 3.37 -1.6425 3.37 -6.1875 3.875 C-2.76553468 -0.15803055 -2.76553468 -0.15803055 0 0 Z " fill="#9B9CAA" transform="translate(50.1875,188.125)"/>
<path d="M0 0 C2.475 0.495 2.475 0.495 5 1 C5.33 2.65 5.66 4.3 6 6 C5.67 5.34 5.34 4.68 5 4 C3.68 4.33 2.36 4.66 1 5 C0.67 3.35 0.34 1.7 0 0 Z " fill="#AEAEB9" transform="translate(171,155)"/>
<path d="M0 0 C1.98 0 3.96 0 6 0 C4.37660195 1.70884005 2.70680947 3.37446717 1 5 C0.34 5 -0.32 5 -1 5 C-0.67 3.35 -0.34 1.7 0 0 Z " fill="#686B75" transform="translate(84,155)"/>
<path d="M0 0 C0.99 0 1.98 0 3 0 C4.35439668 2.70879335 4.06501451 5.00933268 4 8 C1.84622436 5.37801226 0.59927826 3.35595828 0 0 Z " fill="#414549" transform="translate(204,137)"/>
<path d="M0 0 C0.99 0.495 0.99 0.495 2 1 C1.01 2.485 1.01 2.485 0 4 C0 2.68 0 1.36 0 0 Z M-2 3 C-1.34 3.66 -0.68 4.32 0 5 C-0.33 5.66 -0.66 6.32 -1 7 C-1.66 7 -2.32 7 -3 7 C-3.33 7.66 -3.66 8.32 -4 9 C-4 7.35 -4 5.7 -4 4 C-3.34 3.67 -2.68 3.34 -2 3 Z " fill="#484B51" transform="translate(207,128)"/>
<path d="M0 0 C0.99 1.32 1.98 2.64 3 4 C2.67 4.66 2.34 5.32 2 6 C-0.0625 6.625 -0.0625 6.625 -2 7 C-1.42415568 4.61435923 -0.77772405 2.33317216 0 0 Z " fill="#53545E" transform="translate(264,169)"/>
<path d="M0 0 C1.21236328 0.04060547 1.21236328 0.04060547 2.44921875 0.08203125 C3.06410156 0.11683594 3.67898437 0.15164062 4.3125 0.1875 C4.3125 0.5175 4.3125 0.8475 4.3125 1.1875 C1.6725 1.1875 -0.9675 1.1875 -3.6875 1.1875 C-3.6875 2.1775 -3.6875 3.1675 -3.6875 4.1875 C-5.0075 3.8575 -6.3275 3.5275 -7.6875 3.1875 C-5.26849268 0.20484049 -3.789448 -0.16475861 0 0 Z " fill="#42464B" transform="translate(86.6875,153.8125)"/>
<path d="M0 0 C0.33 0.99 0.66 1.98 1 3 C1.66 3.33 2.32 3.66 3 4 C0.525 5.485 0.525 5.485 -2 7 C-2.66 6.34 -3.32 5.68 -4 5 C-3.34 5 -2.68 5 -2 5 C-1.34 3.35 -0.68 1.7 0 0 Z " fill="#777A86" transform="translate(253,150)"/>
<path d="M0 0 C2.15377564 2.62198774 3.40072174 4.64404172 4 8 C2.0625 7.25 2.0625 7.25 0 6 C-0.8125 4 -0.8125 4 -1 2 C-0.67 1.34 -0.34 0.68 0 0 Z " fill="#3A3C41" transform="translate(245,131)"/>
<path d="M0 0 C0.66 0.33 1.32 0.66 2 1 C1.67 2.65 1.34 4.3 1 6 C-0.32 6 -1.64 6 -3 6 C-3 5.34 -3 4.68 -3 4 C-2.34 4 -1.68 4 -1 4 C-0.67 2.68 -0.34 1.36 0 0 Z " fill="#7C7E8B" transform="translate(308,228)"/>
<path d="M0 0 C3.875 2.75 3.875 2.75 5 5 C4.34 5 3.68 5 3 5 C2.67 5.66 2.34 6.32 2 7 C1.34 6.67 0.68 6.34 0 6 C0 4.02 0 2.04 0 0 Z " fill="#747882" transform="translate(277,198)"/>
<path d="M0 0 C2.15377564 2.62198774 3.40072174 4.64404172 4 8 C2.35 7.67 0.7 7.34 -1 7 C-0.67 4.69 -0.34 2.38 0 0 Z " fill="#4F5358" transform="translate(272,185)"/>
<path d="M0 0 C0.33 0 0.66 0 1 0 C1.125 2.875 1.125 2.875 1 6 C0.34 6.66 -0.32 7.32 -1 8 C-1.66 8 -2.32 8 -3 8 C-1.125 2.25 -1.125 2.25 0 0 Z " fill="#505157" transform="translate(291,179)"/>
<path d="M0 0 C0.66 1.32 1.32 2.64 2 4 C1.01 4.495 1.01 4.495 0 5 C0 5.66 0 6.32 0 7 C-0.99 7.33 -1.98 7.66 -3 8 C-1.125 2.25 -1.125 2.25 0 0 Z " fill="#3B3D43" transform="translate(305,151)"/>
<path d="M0 0 C2.475 0.495 2.475 0.495 5 1 C5 1.66 5 2.32 5 3 C5.66 3 6.32 3 7 3 C6.67 3.66 6.34 4.32 6 5 C4.125 4.75 4.125 4.75 2 4 C0.75 1.9375 0.75 1.9375 0 0 Z " fill="#828593" transform="translate(240,150)"/>
<path d="M0 0 C1.9375 0.8125 1.9375 0.8125 4 2 C4.33 2.99 4.66 3.98 5 5 C4.01 6.485 4.01 6.485 3 8 C0 2.25 0 2.25 0 0 Z " fill="#61626C" transform="translate(211,151)"/>
<path d="" fill="#000000" transform="translate(0,0)"/>
<path d="" fill="#000000" transform="translate(0,0)"/>
<path d="" fill="#000000" transform="translate(0,0)"/>
<path d="" fill="#000000" transform="translate(0,0)"/>
<path d="" fill="#000000" transform="translate(0,0)"/>
<path d="" fill="#000000" transform="translate(0,0)"/>
<path d="" fill="#000000" transform="translate(0,0)"/>
<path d="" fill="#000000" transform="translate(0,0)"/>
<path d="" fill="#000000" transform="translate(0,0)"/>
<path d="" fill="#000000" transform="translate(0,0)"/>
<path d="" fill="#000000" transform="translate(0,0)"/>
<path d="" fill="#000000" transform="translate(0,0)"/>
<path d="" fill="#000000" transform="translate(0,0)"/>
<path d="" fill="#000000" transform="translate(0,0)"/>
<path d="" fill="#000000" transform="translate(0,0)"/>
<path d="" fill="#000000" transform="translate(0,0)"/>
<path d="" fill="#000000" transform="translate(0,0)"/>
<path d="" fill="#000000" transform="translate(0,0)"/>
<path d="" fill="#000000" transform="translate(0,0)"/>
<path d="" fill="#000000" transform="translate(0,0)"/>
<path d="" fill="#000000" transform="translate(0,0)"/>
<path d="" fill="#000000" transform="translate(0,0)"/>
<path d="" fill="#000000" transform="translate(0,0)"/>
<path d="" fill="#000000" transform="translate(0,0)"/>
<path d="" fill="#000000" transform="translate(0,0)"/>
<path d="" fill="#000000" transform="translate(0,0)"/>
<path d="" fill="#000000" transform="translate(0,0)"/>
<path d="" fill="#000000" transform="translate(0,0)"/>
<path d="" fill="#000000" transform="translate(0,0)"/>
<path d="" fill="#000000" transform="translate(0,0)"/>
<path d="" fill="#000000" transform="translate(0,0)"/>
<path d="" fill="#000000" transform="translate(0,0)"/>
<path d="" fill="#000000" transform="translate(0,0)"/>
<path d="" fill="#000000" transform="translate(0,0)"/>
<path d="" fill="#000000" transform="translate(0,0)"/>
<path d="" fill="#000000" transform="translate(0,0)"/>
<path d="" fill="#000000" transform="translate(0,0)"/>
<path d="" fill="#000000" transform="translate(0,0)"/>
<path d="" fill="#000000" transform="translate(0,0)"/>
<path d="" fill="#000000" transform="translate(0,0)"/>
<path d="" fill="#000000" transform="translate(0,0)"/>
<path d="" fill="#000000" transform="translate(0,0)"/>
<path d="" fill="#000000" transform="translate(0,0)"/>
<path d="" fill="#000000" transform="translate(0,0)"/>
<path d="" fill="#000000" transform="translate(0,0)"/>
<path d="" fill="#000000" transform="translate(0,0)"/>
<path d="" fill="#000000" transform="translate(0,0)"/>
<path d="" fill="#000000" transform="translate(0,0)"/>
<path d="" fill="#000000" transform="translate(0,0)"/>
<path d="" fill="#000000" transform="translate(0,0)"/>
<path d="" fill="#000000" transform="translate(0,0)"/>
<path d="" fill="#000000" transform="translate(0,0)"/>
<path d="" fill="#000000" transform="translate(0,0)"/>
<path d="" fill="#000000" transform="translate(0,0)"/>
<path d="" fill="#000000" transform="translate(0,0)"/>
<path d="" fill="#000000" transform="translate(0,0)"/>
<path d="" fill="#000000" transform="translate(0,0)"/>
<path d="" fill="#000000" transform="translate(0,0)"/>
<path d="" fill="#000000" transform="translate(0,0)"/>
<path d="" fill="#000000" transform="translate(0,0)"/>
<path d="" fill="#000000" transform="translate(0,0)"/>
<path d="" fill="#000000" transform="translate(0,0)"/>
<path d="" fill="#000000" transform="translate(0,0)"/>
<path d="" fill="#000000" transform="translate(0,0)"/>
<path d="" fill="#000000" transform="translate(0,0)"/>
<path d="" fill="#000000" transform="translate(0,0)"/>
<path d="" fill="#000000" transform="translate(0,0)"/>
<path d="" fill="#000000" transform="translate(0,0)"/>
<path d="" fill="#000000" transform="translate(0,0)"/>
<path d="" fill="#000000" transform="translate(0,0)"/>
</svg>
